<svg width="98" height="112" viewBox="0 0 98 112" fill="none" xmlns="http://www.w3.org/2000/svg">
<g filter="url(#filter0_f_2114_70)">
<path d="M27.1027 94.125L48.172 97.9482L48.4103 79.9199L26.1964 76.0986L27.1027 94.125ZM49.4093 79.9219L49.173 97.9463L70.2384 94.123L71.6173 76.1016L49.4093 79.9219ZM25.9855 91.8242L25.1759 75.7207L14.4679 65.3242L25.9855 91.8242ZM72.6495 75.7197L71.4327 91.6221L82.8048 65.4561L72.6495 75.7197ZM49.4122 78.9063L71.4835 75.1094L49.1749 15.7773L49.4122 78.9063ZM26.3419 75.1084L48.4132 78.9053L48.1749 15.7793L26.3419 75.1084ZM13.6564 63.1426L25.4611 74.6055L46.9005 16.3477L13.6564 63.1426ZM72.3585 74.5938L83.6788 63.1494L50.4904 16.4326L72.3585 74.5938Z" stroke="#1F2C4C"/>
</g>
<path d="M27.4319 17.4209L48.5012 13.5977L48.7395 31.626L26.5256 35.4473L27.4319 17.4209ZM49.7385 31.624L49.5022 13.5996L70.5676 17.4229L71.9465 35.4443L49.7385 31.624ZM26.3147 19.7217L25.5051 35.8252L14.7971 46.2217L26.3147 19.7217ZM72.9788 35.8262L71.762 19.9238L83.134 46.0898L72.9788 35.8262ZM49.7415 32.6396L71.8127 36.4365L49.5042 95.7686L49.7415 32.6396ZM26.6711 36.4375L48.7424 32.6406L48.5042 95.7666L26.6711 36.4375ZM13.9856 48.4033L25.7903 36.9404L47.2297 95.1982L13.9856 48.4033ZM72.6877 36.9521L84.0081 48.3965L50.8196 95.1133L72.6877 36.9521Z" stroke="#80E5DD"/>
<defs>
<filter id="filter0_f_2114_70" x="0" y="0" width="97.3292" height="111.546" filterUnits="userSpaceOnUse" color-interpolation-filters="sRGB">
<feFlood flood-opacity="0" result="BackgroundImageFix"/>
<feBlend mode="normal" in="SourceGraphic" in2="BackgroundImageFix" result="shape"/>
<feGaussianBlur stdDeviation="6.5" result="effect1_foregroundBlur_2114_70"/>
</filter>
</defs>
</svg>
